<?xml version="1.0" encoding="UTF-8"?>
<svg xmlns="http://www.w3.org/2000/svg" xmlns:xlink="http://www.w3.org/1999/xlink" width="20pt" height="20pt" viewBox="0 0 20 20" version="1.1">
<g id="surface1">
<path style=" stroke:none;fill-rule:nonzero;fill:rgb(0%,74.901961%,100%);fill-opacity:1;" d="M 1.222656 2.300781 C 0.996094 2.539062 0.929688 2.777344 0.929688 3.351562 C 0.929688 4.296875 1.105469 4.429688 2.273438 4.496094 L 3.191406 4.546875 L 3.191406 12.992188 L 3.589844 13.539062 C 4.082031 14.214844 4.347656 14.363281 5.121094 14.363281 C 5.664062 14.363281 5.730469 14.386719 5.636719 14.585938 C 5.414062 15.105469 5.4375 16.277344 5.691406 16.753906 C 5.957031 17.261719 6.875 17.804688 7.460938 17.820312 C 8.019531 17.820312 8.738281 17.460938 9.097656 16.980469 C 9.386719 16.609375 9.441406 16.382812 9.441406 15.703125 C 9.441406 15.253906 9.375 14.761719 9.308594 14.613281 C 9.175781 14.375 9.230469 14.363281 11.371094 14.363281 C 13.191406 14.363281 13.5625 14.386719 13.5625 14.546875 C 13.5625 14.652344 13.496094 14.789062 13.429688 14.828125 C 13.351562 14.867188 13.296875 15.210938 13.296875 15.585938 C 13.296875 16.527344 13.722656 17.246094 14.46875 17.566406 C 15.226562 17.898438 15.636719 17.886719 16.289062 17.511719 C 17.0625 17.074219 17.421875 16.476562 17.421875 15.613281 C 17.421875 15.226562 17.367188 14.867188 17.289062 14.828125 C 17.085938 14.707031 17.128906 14.363281 17.339844 14.363281 C 17.433594 14.363281 17.671875 14.203125 17.871094 14.015625 C 18.152344 13.722656 18.21875 13.539062 18.21875 13.019531 C 18.21875 12.445312 18.164062 12.339844 17.777344 12.046875 L 17.328125 11.703125 L 13.21875 11.675781 C 10.957031 11.675781 9.320312 11.636719 9.574219 11.609375 C 10.078125 11.570312 11.996094 11.304688 14.1875 10.972656 C 14.933594 10.863281 15.71875 10.769531 15.917969 10.769531 C 16.460938 10.769531 17.074219 10.347656 17.339844 9.773438 C 17.539062 9.363281 17.566406 8.976562 17.527344 7.207031 C 17.488281 5.371094 17.460938 5.078125 17.222656 4.761719 C 16.636719 3.976562 16.714844 3.988281 11.144531 3.988281 L 6.023438 3.988281 L 5.878906 3.65625 C 5.785156 3.472656 5.71875 3.230469 5.71875 3.136719 C 5.71875 3.046875 5.503906 2.753906 5.253906 2.488281 L 4.773438 1.996094 L 3.136719 1.996094 C 1.609375 1.996094 1.488281 2.007812 1.222656 2.300781 Z M 5.027344 2.6875 C 5.347656 3.046875 5.585938 3.617188 5.585938 4.070312 L 5.585938 4.386719 L 16.382812 4.386719 L 16.769531 4.773438 L 17.152344 5.160156 L 17.152344 9.601562 L 16.769531 9.988281 C 16.503906 10.253906 16.238281 10.371094 15.957031 10.371094 C 15.730469 10.371094 14.933594 10.464844 14.1875 10.570312 C 12.222656 10.863281 8.417969 11.382812 6.222656 11.648438 C 5.785156 11.6875 5.585938 11.78125 5.585938 11.914062 C 5.585938 12.074219 6.4375 12.101562 11.476562 12.101562 C 17.222656 12.101562 17.378906 12.113281 17.660156 12.367188 C 18.019531 12.699219 18.046875 13.324219 17.726562 13.695312 C 17.554688 13.894531 17.328125 13.960938 16.78125 13.960938 C 16.15625 13.960938 16.089844 13.988281 16.277344 14.164062 C 16.382812 14.269531 16.515625 14.363281 16.582031 14.363281 C 16.742188 14.375 17.152344 15.265625 17.152344 15.625 C 17.152344 16.195312 16.714844 16.902344 16.195312 17.167969 C 15.597656 17.472656 15.210938 17.488281 14.574219 17.222656 C 14.054688 17.007812 13.5625 16.222656 13.5625 15.636719 C 13.5625 15.265625 13.960938 14.375 14.136719 14.363281 C 14.203125 14.363281 14.335938 14.269531 14.441406 14.164062 C 14.628906 13.988281 14.296875 13.960938 11.421875 13.960938 L 8.203125 13.960938 L 8.683594 14.429688 C 9.121094 14.855469 9.175781 14.972656 9.175781 15.570312 C 9.175781 16.410156 8.855469 16.980469 8.257812 17.234375 C 7.699219 17.472656 7.328125 17.472656 6.753906 17.234375 C 6.195312 16.996094 6.0625 16.847656 5.851562 16.171875 C 5.636719 15.492188 5.851562 14.773438 6.394531 14.308594 L 6.808594 13.960938 L 4.414062 13.960938 L 4.003906 13.496094 L 3.589844 13.019531 L 3.589844 4.121094 L 2.699219 4.121094 C 1.289062 4.121094 1.195312 4.070312 1.195312 3.335938 C 1.195312 2.992188 1.261719 2.644531 1.355469 2.554688 C 1.460938 2.445312 2.046875 2.394531 3.125 2.394531 C 4.628906 2.394531 4.761719 2.421875 5.027344 2.6875 Z M 5.027344 2.6875 "/>
<path style=" stroke:none;fill-rule:nonzero;fill:rgb(0%,74.901961%,100%);fill-opacity:1;" d="M 5.585938 8.113281 L 5.585938 10.386719 L 6.089844 10.304688 C 6.355469 10.253906 6.664062 10.199219 6.753906 10.171875 C 6.875 10.132812 6.914062 9.574219 6.914062 7.980469 L 6.914062 5.851562 L 5.585938 5.851562 Z M 6.515625 8.046875 C 6.515625 9.746094 6.503906 9.839844 6.25 9.839844 C 5.996094 9.839844 5.984375 9.746094 5.984375 8.046875 C 5.984375 6.34375 5.996094 6.25 6.25 6.25 C 6.503906 6.25 6.515625 6.34375 6.515625 8.046875 Z M 6.515625 8.046875 "/>
<path style=" stroke:none;fill-rule:nonzero;fill:rgb(0%,74.901961%,100%);fill-opacity:1;" d="M 8.113281 7.925781 L 8.113281 10.011719 L 8.828125 9.921875 C 10.054688 9.789062 9.972656 9.921875 9.972656 7.765625 L 9.972656 5.851562 L 8.113281 5.851562 Z M 9.574219 7.847656 C 9.574219 8.722656 9.519531 9.441406 9.453125 9.441406 C 9.386719 9.441406 9.148438 9.480469 8.921875 9.519531 L 8.511719 9.601562 L 8.511719 6.25 L 9.574219 6.25 Z M 9.574219 7.847656 "/>
<path style=" stroke:none;fill-rule:nonzero;fill:rgb(0%,74.901961%,100%);fill-opacity:1;" d="M 11.171875 7.726562 L 11.171875 9.601562 L 11.941406 9.507812 C 12.355469 9.453125 12.738281 9.386719 12.804688 9.347656 C 12.859375 9.320312 12.898438 8.523438 12.898438 7.566406 L 12.898438 5.851562 L 11.171875 5.851562 Z M 12.5 7.644531 C 12.5 8.671875 12.460938 9.042969 12.339844 9.042969 C 12.246094 9.042969 12.035156 9.082031 11.875 9.121094 C 11.570312 9.203125 11.570312 9.203125 11.570312 7.726562 L 11.570312 6.25 L 12.5 6.25 Z M 12.5 7.644531 "/>
<path style=" stroke:none;fill-rule:nonzero;fill:rgb(0%,74.901961%,100%);fill-opacity:1;" d="M 13.960938 7.511719 C 13.960938 9.402344 13.871094 9.269531 15.210938 9.097656 L 15.824219 9.003906 L 15.824219 5.851562 L 13.960938 5.851562 Z M 15.425781 7.433594 C 15.425781 8.550781 15.414062 8.617188 15.132812 8.695312 C 14.375 8.894531 14.363281 8.882812 14.363281 7.511719 L 14.363281 6.25 L 15.425781 6.25 Z M 15.425781 7.433594 "/>
</g>
</svg>
