<?xml version="1.0" standalone="no"?>
<!DOCTYPE svg PUBLIC "-//W3C//DTD SVG 20010904//EN"
 "http://www.w3.org/TR/2001/REC-SVG-20010904/DTD/svg10.dtd">
<svg version="1.0" xmlns="http://www.w3.org/2000/svg"
 width="150.000000pt" height="150.000000pt" viewBox="0 0 150.000000 150.000000"
 preserveAspectRatio="xMidYMid meet">
<metadata>
Created by potrace 1.10, written by Peter Selinger 2001-2011
</metadata>
<g transform="translate(0.000000,150.000000) scale(0.100000,-0.100000)"
fill="#00bfff" stroke="none">
<path d="M92 1327 c-17 -18 -22 -36 -22 -79 0 -71 13 -81 101 -86 l69 -4 0
-318 0 -317 30 -41 c37 -51 57 -62 115 -62 41 0 46 -2 39 -17 -17 -39 -15
-127 4 -163 20 -38 89 -79 133 -80 42 0 96 27 123 63 22 28 26 45 26 96 0 34
-5 71 -10 82 -10 18 -6 19 155 19 137 0 165 -2 165 -14 0 -8 -5 -18 -10 -21
-6 -3 -10 -29 -10 -57 0 -71 32 -125 88 -149 57 -25 88 -24 137 4 58 33 85 78
85 143 0 29 -4 56 -10 59 -15 9 -12 35 4 35 7 0 25 12 40 26 21 22 26 36 26
75 0 43 -4 51 -33 73 l-34 26 -309 2 c-170 0 -293 3 -274 5 38 3 182 23 347
48 56 8 115 15 130 15 41 0 87 32 107 75 15 31 17 60 14 193 -3 138 -5 160
-23 184 -44 59 -38 58 -457 58 l-385 0 -11 25 c-7 14 -12 32 -12 39 0 7 -16
29 -35 49 l-36 37 -123 0 c-115 0 -124 -1 -144 -23z m286 -29 c24 -27 42 -70
42 -104 l0 -24 406 0 406 0 29 -29 29 -29 0 -167 0 -167 -29 -29 c-20 -20 -40
-29 -61 -29 -17 0 -77 -7 -133 -15 -148 -22 -434 -61 -599 -81 -33 -3 -48 -10
-48 -20 0 -12 64 -14 443 -14 432 0 444 -1 465 -20 27 -25 29 -72 5 -100 -13
-15 -30 -20 -71 -20 -47 0 -52 -2 -38 -15 8 -8 18 -15 23 -15 12 -1 43 -68 43
-95 0 -43 -33 -96 -72 -116 -45 -23 -74 -24 -122 -4 -39 16 -76 75 -76 119 0
28 30 95 43 96 5 0 15 7 23 15 14 13 -11 15 -227 15 l-242 0 36 -35 c33 -32
37 -41 37 -86 0 -63 -24 -106 -69 -125 -42 -18 -70 -18 -113 0 -42 18 -52 29
-68 80 -16 51 0 105 41 140 l31 26 -90 0 -90 0 -31 35 -31 36 0 334 0 335 -67
0 c-106 0 -113 4 -113 59 0 26 5 52 12 59 8 8 52 12 133 12 113 0 123 -2 143
-22z"/>
<path d="M420 890 l0 -171 38 6 c20 4 43 8 50 10 9 3 12 45 12 165 l0 160 -50
0 -50 0 0 -170z m70 5 c0 -128 -1 -135 -20 -135 -19 0 -20 7 -20 135 0 128 1
135 20 135 19 0 20 -7 20 -135z"/>
<path d="M610 904 l0 -157 54 7 c92 10 86 0 86 162 l0 144 -70 0 -70 0 0 -156z
m110 6 c0 -66 -4 -120 -9 -120 -5 0 -23 -3 -40 -6 l-31 -6 0 126 0 126 40 0
40 0 0 -120z"/>
<path d="M840 919 l0 -141 58 7 c31 4 60 9 65 12 4 2 7 62 7 134 l0 129 -65 0
-65 0 0 -141z m100 6 c0 -77 -3 -105 -12 -105 -7 0 -23 -3 -35 -6 -23 -6 -23
-6 -23 105 l0 111 35 0 35 0 0 -105z"/>
<path d="M1050 935 c0 -142 -7 -132 94 -119 l46 7 0 118 0 119 -70 0 -70 0 0
-125z m110 6 c0 -84 -1 -89 -22 -95 -57 -15 -58 -14 -58 89 l0 95 40 0 40 0 0
-89z"/>
</g>
</svg>
